<svg id="Capa_1" enable-background="new 0 0 512 512" height="512" viewBox="0 0 512 512" width="512" xmlns="http://www.w3.org/2000/svg"><g><g><path d="m432.355 63.613c0-13.282-10.767-24.048-24.048-24.048h-352.71c-13.282 0-24.048 10.767-24.048 24.048v320.645c0 13.282 10.767 16.549 24.048 16.549h352.71c13.282 0 24.048-3.267 24.048-16.549z" fill="#eceaec"/><path d="m55.597 103.694h-24.049v280.564c0 13.282 10.767 24.048 24.048 24.048h352.71c13.282 0 24.048-10.767 24.048-24.048h-368.741c-4.427 0-8.016-3.589-8.016-8.016z" fill="#dad8db"/><path d="m408.306 39.565h-352.709c-13.282 0-24.048 10.767-24.048 24.048v40.081h400.806v-40.081c0-13.282-10.767-24.048-24.049-24.048z" fill="#ffe07d"/><path d="m87.661 71.629c-8.854 0-16.032-7.178-16.032-16.032v-32.065c0-8.854 7.178-16.032 16.032-16.032 8.854 0 16.032 7.178 16.032 16.032v32.065c.001 8.854-7.177 16.032-16.032 16.032z" fill="#eceaec"/><path d="m87.661 71.629c-8.854 0-16.032-7.178-16.032-16.032v-16.032h32.065v16.032c0 8.854-7.178 16.032-16.033 16.032z" fill="#dad8db"/><path d="m376.242 71.629c-8.854 0-16.032-7.178-16.032-16.032v-32.065c0-8.854 7.178-16.032 16.032-16.032 8.854 0 16.032 7.178 16.032 16.032v32.065c0 8.854-7.178 16.032-16.032 16.032z" fill="#eceaec"/><path d="m376.242 71.629c-8.854 0-16.032-7.178-16.032-16.032v-16.032h32.065v16.032c-.001 8.854-7.179 16.032-16.033 16.032z" fill="#dad8db"/><path d="m55.597 63.613v-24.048c-13.282 0-24.048 10.767-24.048 24.048v40.081h400.806v-24.049h-360.726c-8.854 0-16.032-7.178-16.032-16.032z" fill="#ffd064"/><path d="m438.944 365.32c15.152-8.089 25.476-24.019 25.476-42.395v-58.909h-96.194v58.909c0 18.376 10.324 34.306 25.476 42.395 4.045 2.16 6.589 6.336 6.589 10.922s-2.544 8.762-6.589 10.922c-15.152 8.089-25.476 24.019-25.476 42.395v58.909h96.194v-58.909c0-18.376-10.324-34.307-25.476-42.395-4.045-2.16-6.589-6.336-6.589-10.922s2.544-8.763 6.589-10.922z" fill="#eceaec"/><path d="m368.226 322.925c0 18.376 10.324 34.306 25.476 42.395 4.045 2.16 6.589 6.336 6.589 10.922s-2.544 8.762-6.589 10.922c-15.152 8.089-25.476 24.019-25.476 42.395v58.909h40.081v-224.452h-40.081z" fill="#dad8db"/><path d="m368.226 247.984h96.194c8.854 0 16.032 7.178 16.032 16.032 0 8.854-7.178 16.032-16.032 16.032h-96.194c-8.854 0-16.032-7.178-16.032-16.032 0-8.854 7.177-16.032 16.032-16.032z" fill="#ffe07d"/><path d="m464.419 448.387-40.081-26.72v-32.044c0-10.15 5.587-19.477 14.536-24.266l.069-.037c11.364-6.067 20.012-16.546 23.626-29.158h-92.495c3.614 12.613 12.262 21.105 23.626 27.172 8.992 4.813 14.605 12.167 14.605 26.368v31.965l-40.081 26.72v40.081h96.194v-40.081z" fill="#ffd064"/><g><g><path d="m368.226 488.468h40.08v-66.802l-40.08 26.721z" fill="#ffc250"/></g><path d="m393.771 365.357c9.076 4.903 14.536 14.618 14.536 24.934v-54.129h-38.231c3.614 12.613 12.262 23.091 23.626 29.158.022.011.045.024.069.037z" fill="#ffc250"/></g><path d="m368.226 472.435h96.194c8.854 0 16.032 7.178 16.032 16.032 0 8.854-7.178 16.032-16.032 16.032h-96.194c-8.854 0-16.032-7.178-16.032-16.032 0-8.854 7.177-16.032 16.032-16.032z" fill="#ffe07d"/><g fill="#ffd064"><path d="m408.306 247.984h-40.081c-8.854 0-16.032 7.178-16.032 16.032s7.178 16.032 16.032 16.032h40.081z"/><path d="m408.306 472.435h-40.081c-8.854 0-16.032 7.178-16.032 16.032s7.178 16.032 16.032 16.032h40.081z"/></g></g><g><path d="m336.161 400.807h-280.564c-9.125 0-16.548-7.424-16.548-16.549v-273.065h385.807v104.726c0 4.142 3.358 7.5 7.5 7.5s7.5-3.358 7.5-7.5v-152.306c0-17.396-14.152-31.548-31.548-31.548h-8.532v-8.532c-.002-12.976-10.558-23.533-23.534-23.533s-23.532 10.557-23.532 23.532v8.532h-216.952c-4.142 0-7.5 3.358-7.5 7.5s3.358 7.5 7.5 7.5h216.951v8.532c0 12.976 10.557 23.532 23.532 23.532 12.976 0 23.533-10.557 23.533-23.532v-8.532h8.532c9.125 0 16.548 7.423 16.548 16.548v32.581h-385.806v-32.58c0-9.125 7.423-16.548 16.548-16.548h8.532v8.532c0 12.976 10.557 23.532 23.532 23.532s23.532-10.557 23.532-23.532v-32.065c.001-12.975-10.555-23.532-23.531-23.532s-23.532 10.557-23.532 23.532v8.532h-8.532c-17.396 0-31.548 14.152-31.548 31.548v320.645c0 17.396 14.152 31.549 31.548 31.549h280.564c4.142 0 7.5-3.358 7.5-7.5s-3.358-7.499-7.5-7.499zm40.081-336.678c-4.705 0-8.532-3.828-8.532-8.532v-32.065c0-4.705 3.828-8.532 8.532-8.532 4.705 0 8.533 3.828 8.533 8.532v32.064c-.001 4.705-3.828 8.533-8.533 8.533zm-297.113-40.597c0-4.705 3.828-8.532 8.532-8.532s8.532 3.828 8.532 8.532v32.064c0 4.705-3.828 8.532-8.532 8.532s-8.532-3.828-8.532-8.532z"/><path d="m239.968 168.339h-16.032c-4.142 0-7.5 3.358-7.5 7.5s3.358 7.5 7.5 7.5h16.032c4.142 0 7.5-3.358 7.5-7.5s-3.358-7.5-7.5-7.5z"/><path d="m296.081 168.339h-16.032c-4.142 0-7.5 3.358-7.5 7.5s3.358 7.5 7.5 7.5h16.032c4.142 0 7.5-3.358 7.5-7.5s-3.358-7.5-7.5-7.5z"/><path d="m183.855 168.339h-16.032c-4.142 0-7.5 3.358-7.5 7.5s3.358 7.5 7.5 7.5h16.032c4.142 0 7.5-3.358 7.5-7.5s-3.358-7.5-7.5-7.5z"/><path d="m239.968 208.419h-16.032c-4.142 0-7.5 3.358-7.5 7.5s3.358 7.5 7.5 7.5h16.032c4.142 0 7.5-3.358 7.5-7.5s-3.358-7.5-7.5-7.5z"/><path d="m296.081 208.419h-16.032c-4.142 0-7.5 3.358-7.5 7.5s3.358 7.5 7.5 7.5h16.032c4.142 0 7.5-3.358 7.5-7.5s-3.358-7.5-7.5-7.5z"/><path d="m183.855 208.419h-16.032c-4.142 0-7.5 3.358-7.5 7.5s3.358 7.5 7.5 7.5h16.032c4.142 0 7.5-3.358 7.5-7.5s-3.358-7.5-7.5-7.5z"/><path d="m239.968 248.5h-16.032c-4.142 0-7.5 3.358-7.5 7.5s3.358 7.5 7.5 7.5h16.032c4.142 0 7.5-3.358 7.5-7.5s-3.358-7.5-7.5-7.5z"/><path d="m296.081 248.5h-16.032c-4.142 0-7.5 3.358-7.5 7.5s3.358 7.5 7.5 7.5h16.032c4.142 0 7.5-3.358 7.5-7.5s-3.358-7.5-7.5-7.5z"/><path d="m183.855 248.5h-16.032c-4.142 0-7.5 3.358-7.5 7.5s3.358 7.5 7.5 7.5h16.032c4.142 0 7.5-3.358 7.5-7.5s-3.358-7.5-7.5-7.5z"/><path d="m239.968 288.581h-16.032c-4.142 0-7.5 3.358-7.5 7.5s3.358 7.5 7.5 7.5h16.032c4.142 0 7.5-3.358 7.5-7.5s-3.358-7.5-7.5-7.5z"/><path d="m296.081 288.581h-16.032c-4.142 0-7.5 3.358-7.5 7.5s3.358 7.5 7.5 7.5h16.032c4.142 0 7.5-3.358 7.5-7.5s-3.358-7.5-7.5-7.5z"/><path d="m183.855 288.581h-16.032c-4.142 0-7.5 3.358-7.5 7.5s3.358 7.5 7.5 7.5h16.032c4.142 0 7.5-3.358 7.5-7.5s-3.358-7.5-7.5-7.5z"/><path d="m239.968 328.661h-16.032c-4.142 0-7.5 3.358-7.5 7.5s3.358 7.5 7.5 7.5h16.032c4.142 0 7.5-3.358 7.5-7.5s-3.358-7.5-7.5-7.5z"/><path d="m296.081 328.661h-16.032c-4.142 0-7.5 3.358-7.5 7.5s3.358 7.5 7.5 7.5h16.032c4.142 0 7.5-3.358 7.5-7.5s-3.358-7.5-7.5-7.5z"/><path d="m183.855 328.661h-16.032c-4.142 0-7.5 3.358-7.5 7.5s3.358 7.5 7.5 7.5h16.032c4.142 0 7.5-3.358 7.5-7.5s-3.358-7.5-7.5-7.5z"/><path d="m127.742 168.339h-16.033c-4.142 0-7.5 3.358-7.5 7.5s3.358 7.5 7.5 7.5h16.033c4.142 0 7.5-3.358 7.5-7.5s-3.358-7.5-7.5-7.5z"/><path d="m127.742 208.419h-16.033c-4.142 0-7.5 3.358-7.5 7.5s3.358 7.5 7.5 7.5h16.033c4.142 0 7.5-3.358 7.5-7.5s-3.358-7.5-7.5-7.5z"/><path d="m127.742 248.5h-16.033c-4.142 0-7.5 3.358-7.5 7.5s3.358 7.5 7.5 7.5h16.033c4.142 0 7.5-3.358 7.5-7.5s-3.358-7.5-7.5-7.5z"/><path d="m127.742 288.581h-16.033c-4.142 0-7.5 3.358-7.5 7.5s3.358 7.5 7.5 7.5h16.033c4.142 0 7.5-3.358 7.5-7.5s-3.358-7.5-7.5-7.5z"/><path d="m127.742 328.661h-16.033c-4.142 0-7.5 3.358-7.5 7.5s3.358 7.5 7.5 7.5h16.033c4.142 0 7.5-3.358 7.5-7.5s-3.358-7.5-7.5-7.5z"/><path d="m352.193 168.339h-16.032c-4.142 0-7.5 3.358-7.5 7.5s3.358 7.5 7.5 7.5h16.032c4.142 0 7.5-3.358 7.5-7.5s-3.358-7.5-7.5-7.5z"/><path d="m352.193 208.419h-16.032c-4.142 0-7.5 3.358-7.5 7.5s3.358 7.5 7.5 7.5h16.032c4.142 0 7.5-3.358 7.5-7.5s-3.358-7.5-7.5-7.5z"/><path d="m471.919 466.168v-36.609c0-20.536-11.282-39.316-29.443-49.011-1.617-.863-2.621-2.513-2.621-4.306s1.004-3.442 2.621-4.306c18.162-9.695 29.444-28.475 29.444-49.011v-36.609c9.308-3.139 16.032-11.946 16.032-22.3 0-12.976-10.557-23.532-23.532-23.532h-96.194c-12.976 0-23.532 10.557-23.532 23.532 0 10.354 6.724 19.16 16.032 22.3v36.609c0 20.536 11.282 39.316 29.443 49.011 1.617.863 2.622 2.513 2.622 4.306s-1.004 3.443-2.622 4.306c-18.161 9.695-29.443 28.475-29.443 49.011v36.609c-9.308 3.139-16.032 11.946-16.032 22.3 0 12.976 10.557 23.532 23.532 23.532h96.194c12.976 0 23.532-10.557 23.532-23.532 0-10.354-6.724-19.16-16.033-22.3zm-96.193-1.232v-12.535l40.597-27.064 40.597 27.064v12.535zm-7.5-209.452h96.194c4.705 0 8.532 3.828 8.532 8.532s-3.828 8.532-8.532 8.532h-16.032c-4.142 0-7.5 3.358-7.5 7.5s3.358 7.5 7.5 7.5h8.532v35.376c0 1.938-.144 3.853-.412 5.736h-80.369c-.269-1.884-.412-3.799-.412-5.736v-35.376h40.597c4.142 0 7.5-3.358 7.5-7.5s-3.358-7.5-7.5-7.5h-48.097c-4.705 0-8.532-3.828-8.532-8.532s3.826-8.532 8.531-8.532zm29.007 138.296c6.512-3.477 10.557-10.197 10.557-17.539 0-7.341-4.045-14.062-10.557-17.538-6.674-3.563-12.073-8.806-15.794-15.042h69.767c-3.721 6.237-9.12 11.479-15.794 15.042-6.512 3.476-10.557 10.196-10.557 17.538s4.045 14.063 10.557 17.539c13.266 7.082 21.507 20.792 21.507 35.779v4.814l-36.437-24.291c-2.52-1.679-5.802-1.68-8.32 0l-36.437 24.291v-4.814c.001-14.987 8.242-28.697 21.508-35.779zm67.186 103.22h-96.194c-4.705 0-8.532-3.828-8.532-8.532s3.828-8.532 8.532-8.532h96.194c4.705 0 8.532 3.828 8.532 8.532s-3.827 8.532-8.532 8.532z"/></g></g></svg>